<mxfile host="app.diagrams.net" modified="2020-09-09T17:41:37.666Z" agent="5.0 (Macintosh; Intel Mac OS X 10_15_6) AppleWebKit/537.36 (KHTML, like Gecko) Chrome/84.0.4147.135 Safari/537.36 OPR/70.0.3728.154" etag="jIntmgdeiLEVdeqmY6Jw" version="13.6.9" type="github">
  <diagram id="biWBrqLmoQavXLtHWGHe" name="Page-1">
    <mxGraphModel dx="906" dy="605" grid="1" gridSize="10" guides="1" tooltips="1" connect="1" arrows="1" fold="1" page="1" pageScale="1" pageWidth="850" pageHeight="1100" math="0" shadow="0">
      <root>
        <mxCell id="0" />
        <mxCell id="1" parent="0" />
        <mxCell id="7qzMEofhVh9Ta85jU8DU-1" value="&lt;ol style=&quot;margin: 24px 0px 0px 32px ; padding: 0px ; border: 0px ; outline: 0px ; vertical-align: baseline ; background: transparent ; list-style-type: none ; list-style-position: inside ; color: rgb(58 , 58 , 58) ; font-family: &amp;#34;aktiv grotesk&amp;#34; , &amp;#34;helvetica neue&amp;#34; , &amp;#34;helvetica&amp;#34; , &amp;#34;arial&amp;#34; , sans-serif&quot;&gt;&lt;li style=&quot;margin: 12px 0px 0px ; padding: 0px ; border: 0px ; outline: 0px ; vertical-align: baseline ; background: transparent ; position: relative&quot;&gt;&lt;p style=&quot;margin: 0px ; padding: 0px ; border: 0px ; outline: 0px ; vertical-align: baseline ; background: transparent&quot;&gt;The application must be an HTML, CSS, and JavaScript frontend with a Rails API backend. All interactions between the client and the server must be handled asynchronously (AJAX) and use JSON as the communication format.&lt;/p&gt;&lt;/li&gt;&lt;li style=&quot;margin: 12px 0px 0px ; padding: 0px ; border: 0px ; outline: 0px ; vertical-align: baseline ; background: transparent ; position: relative&quot;&gt;&lt;p style=&quot;margin: 0px ; padding: 0px ; border: 0px ; outline: 0px ; vertical-align: baseline ; background: transparent&quot;&gt;The JavaScript application must use Object Oriented JavaScript (classes) to encapsulate related data and behavior.&lt;/p&gt;&lt;/li&gt;&lt;li style=&quot;margin: 12px 0px 0px ; padding: 0px ; border: 0px ; outline: 0px ; vertical-align: baseline ; background: transparent ; position: relative&quot;&gt;&lt;p style=&quot;margin: 0px ; padding: 0px ; border: 0px ; outline: 0px ; vertical-align: baseline ; background: transparent&quot;&gt;The domain model served by the Rails backend must include a resource with at least one has-many relationship. For example, if you were building an Instagram clone, you might display a list of photos with associated comments.&lt;/p&gt;&lt;/li&gt;&lt;li style=&quot;margin: 12px 0px 0px ; padding: 0px ; border: 0px ; outline: 0px ; vertical-align: baseline ; background: transparent ; position: relative&quot;&gt;&lt;p style=&quot;margin: 0px ; padding: 0px ; border: 0px ; outline: 0px ; vertical-align: baseline ; background: transparent&quot;&gt;The backend and frontend must collaborate to demonstrate Client-Server Communication. Your application should have at least 3 AJAX calls, covering at least 2 of Create, Read, Update, and Delete (CRUD). Your client-side JavaScript code must use&amp;nbsp;&lt;code style=&quot;margin: 0px ; padding: 0px 8px 4px ; border: 0px ; outline: 0px ; vertical-align: baseline ; background: rgb(239 , 239 , 239) ; border-radius: 4px ; line-height: 1.5 ; position: relative ; top: -1px&quot;&gt;fetch&lt;/code&gt;&amp;nbsp;with the appropriate HTTP verb, and your Rails API should use RESTful conventions.&lt;/p&gt;&lt;/li&gt;&lt;/ol&gt;" style="text;html=1;strokeColor=none;fillColor=none;align=left;verticalAlign=middle;whiteSpace=wrap;rounded=0;" vertex="1" parent="1">
          <mxGeometry x="20" y="10" width="570" height="260" as="geometry" />
        </mxCell>
      </root>
    </mxGraphModel>
  </diagram>
</mxfile>
